<?xml version="1.0" standalone="no"?>
<!DOCTYPE svg PUBLIC "-//W3C//DTD SVG 20010904//EN"
 "http://www.w3.org/TR/2001/REC-SVG-20010904/DTD/svg10.dtd">
<svg version="1.0" xmlns="http://www.w3.org/2000/svg"
 width="684.000000pt" height="141.000000pt" viewBox="0 0 684.000000 141.000000"
 preserveAspectRatio="xMidYMid meet">

<g transform="translate(0.000000,141.000000) scale(0.100000,-0.100000)"
fill="#000000" stroke="none">
<path d="M37 1364 c-4 -4 -7 -304 -7 -666 l0 -658 518 2 517 3 3 157 3 158
-321 0 -320 0 -2 503 -3 502 -191 3 c-104 1 -193 -1 -197 -4z"/>
<path d="M1645 1362 c-6 -4 -21 -34 -34 -67 -82 -212 -178 -465 -211 -555 -21
-58 -66 -177 -100 -265 -34 -88 -81 -214 -104 -280 -24 -66 -47 -128 -51 -137
-7 -17 6 -18 197 -18 l204 0 12 48 c31 114 44 153 58 167 13 12 54 15 238 15
167 0 226 -3 233 -12 5 -7 17 -40 27 -73 10 -33 24 -79 33 -103 l16 -42 203 0
c232 0 219 -6 180 88 -13 31 -61 156 -106 277 -44 121 -92 247 -105 280 -36
89 -121 316 -215 574 -17 47 -35 90 -41 98 -9 10 -58 13 -218 13 -113 0 -211
-4 -216 -8z m253 -463 c84 -261 103 -331 98 -344 -4 -12 -32 -15 -145 -15 -77
0 -142 4 -145 8 -4 8 8 51 100 350 22 72 39 112 47 110 7 -2 27 -51 45 -109z"/>
<path style="fill: #1963f8" d="M2730 711 l0 -661 334 0 c382 0 466 9 581 64 150 72 250 212 282 395
19 108 13 357 -11 446 -52 194 -189 339 -370 393 -41 12 -128 16 -433 19
l-383 5 0 -661z m675 332 c52 -27 79 -57 107 -118 21 -46 23 -64 23 -225 0
-143 -3 -183 -18 -221 -21 -54 -57 -92 -112 -115 -43 -18 -205 -31 -249 -20
l-26 6 0 361 0 361 118 -4 c93 -4 125 -9 157 -25z"/>
<path style="fill: #1963f8" d="M4180 710 l0 -660 553 2 552 3 0 140 0 140 -344 3 c-234 1 -349 6
-358 13 -19 16 -19 252 0 268 9 7 115 12 323 13 l309 3 0 120 0 120 -315 8
c-219 6 -317 12 -322 20 -14 22 -9 174 5 186 9 7 122 12 348 13 l334 3 0 130
0 130 -542 3 -543 2 0 -660z"/>
<path style="fill: #1963f8" d="M5400 1364 c0 -6 87 -238 175 -469 42 -109 102 -270 235 -620 37 -99
71 -190 75 -203 l6 -22 221 2 220 3 28 75 c16 41 59 156 95 255 36 99 88 239
115 310 69 182 250 667 250 673 0 1 -90 2 -200 2 l-199 0 -30 -97 c-91 -300
-114 -371 -157 -508 -26 -82 -57 -184 -69 -225 -44 -143 -51 -144 -93 -11 -17
54 -67 215 -112 357 -45 143 -97 310 -116 372 l-36 112 -204 0 c-112 0 -204
-3 -204 -6z"/>
</g>
</svg>
